<svg xmlns="http://www.w3.org/2000/svg" width="17" height="28" viewBox="0 0 17 28" fill="none">
    <path
        d="M16.722 10.996a15.9 15.9 0 0 1-.828 5.904 21.4 21.4 0 0 1-1.548 2.952 33 33 0 0 1-2.376 3.024 43 43 0 0 1-2.916 2.628q-.54.36-.54.432 0 .036-.18.36a1.22 1.22 0 0 1-.576.468 1.4 1.4 0 0 1-1.152.072q-.684-.252-.972-1.224-.18-.72-.684-3.06a314 314 0 0 0-1.656-7.596q-.36-1.62-.9-4.5l-.756-4.212a54 54 0 0 1-.324-1.872q-.036-.828-.36-.936Q.27 2.86.414 2.068q.108-.828.972-1.26Q3.33.304 5.634.304q3.636.36 6.192 2.052 1.656 1.296 2.988 3.024 1.584 2.412 1.908 5.616m-3.42 1.368q.072-2.016-.432-3.384-.504-1.656-2.016-3.132-.828-.936-1.62-1.188a12.5 12.5 0 0 0-2.7-.936 10 10 0 0 0-1.368-.144q-.792-.072-.792 0t.18 1.152q.18 1.044.324 1.728.216.9.684 3.492a87 87 0 0 0 1.08 5.436q.576 2.592.972 4.5.18.792.288 1.368.108.54.144.576.54-.252 2.196-2.088 1.332-1.548 1.944-2.88 1.08-2.052 1.116-4.5"
        fill="#2BC016" />
</svg>